<?xml version="1.0" encoding="UTF-8"?><svg id="a" xmlns="http://www.w3.org/2000/svg" viewBox="0 0 833.42 227.3"><defs><style>.b,.c,.d{fill:#27903a;}.c{opacity:.5;}.d{opacity:.7;}</style></defs><g><path d="M128.98,144.54c0,30.64-24.06,51.25-61.29,51.25h-20.95l-5.89,29.78H0L24.24,104.38h53.84c32.55,0,50.9,14.89,50.9,40.17Zm-41.38,3.64c0-8.66-5.89-12.29-15.24-12.29h-13.68l-5.71,28.39h16.79c11.25,0,17.83-5.89,17.83-16.1Z"/><path d="M248.61,130.87l-18.87,94.7h-36.88l1.73-8.66c-6.92,6.75-15.41,10.39-25.62,10.39-18.87,0-38.95-15.58-38.95-43.8,0-31.16,23.2-54.36,50.38-54.36,11.6,0,21.29,3.29,27.01,11.77l2.08-10.04h39.13Zm-64.92,65.62c10.21,0,17.14-8.48,17.14-21.64,0-8.83-5.19-14.89-14.02-14.89-10.21,0-17.14,8.48-17.14,21.64,0,8.83,5.19,14.89,14.02,14.89Z"/><path d="M333.96,129.14l-6.92,34.62c-3.29-.52-5.71-.69-8.48-.69-12.98,0-20.95,5.37-23.72,18.7l-8.83,43.8h-39.13l18.87-94.7h36.88l-1.9,9.7c8.14-7.96,19.74-11.43,33.24-11.43Z"/><path d="M447.88,130.87l-18.87,94.7h-36.88l1.73-8.66c-6.93,6.75-15.41,10.39-25.62,10.39-18.87,0-38.95-15.58-38.95-43.8,0-31.16,23.2-54.36,50.38-54.36,11.6,0,21.29,3.29,27.01,11.77l2.08-10.04h39.13Zm-64.92,65.62c10.21,0,17.14-8.48,17.14-21.64,0-8.83-5.19-14.89-14.02-14.89-10.21,0-17.14,8.48-17.14,21.64,0,8.83,5.19,14.89,14.02,14.89Z"/><path d="M576.51,97.11l-25.62,128.46h-36.88l1.73-8.66c-6.75,6.58-15.24,10.39-25.45,10.39-18.87,0-38.95-15.58-38.95-43.8,0-31.16,23.2-54.36,50.38-54.36,11.6,0,21.12,3.29,27.01,11.6l8.66-43.63h39.13Zm-71.5,99.37c10.21,0,17.14-8.48,17.14-21.64,0-8.83-5.19-14.89-14.02-14.89-10.21,0-17.14,8.48-17.14,21.64,0,8.83,5.19,14.89,14.02,14.89Z"/><path d="M587.07,130.87h38.95l-18.87,94.7h-38.95l18.87-94.7Z"/><path d="M622.38,218.64l13.5-26.66c9.35,5.71,22.33,8.66,32.89,8.66,8.66,0,11.6-1.9,11.6-4.5,0-8.14-47.78,.52-47.78-31.16,0-24.41,23.72-35.84,53.32-35.84,13.85,0,27.18,2.6,37.05,7.1l-13.5,26.66c-9.87-5.71-20.26-7.1-28.22-7.1-9,0-11.95,2.42-11.95,4.67,0,8.66,47.61-.35,47.61,31.34,0,23.72-23.89,35.49-52.98,35.49-16.97,0-33.24-3.81-41.55-8.66Z"/><path d="M831.35,187.31h-66.31c1.73,7.96,7.96,11.08,18.18,11.08,7.1,0,14.54-2.08,20.6-6.58l16.27,23.72c-12.98,8.83-27.01,11.77-41.38,11.77-31.16,0-52.11-16.97-52.11-43.8,0-31.16,23.37-54.36,58.69-54.36,30.3,0,48.13,17.31,48.13,41.72,0,5.89-.87,11.43-2.08,16.45Zm-64.75-18.87h30.99c0-7.96-5.71-12.64-14.02-12.64-9,0-14.37,5.37-16.97,12.64Z"/></g><g><path class="b" d="M220.25,0l-70.69,110.95h39.46l11.09-19.34h42.32l3.65,19.34h37.25L257.02,0h-36.77Zm-4.75,64.67l16.32-28.37,5.39,28.37h-21.71Z"/><polygon class="b" points="510.6 0 464.16 58.96 440.07 0 419.8 0 409.64 0 297.59 0 291.73 29 324.22 29 307.89 110.95 345.3 110.95 361.62 29 403.84 29 387.45 110.95 421.53 110.95 431.51 61.02 448.63 100.96 465.11 100.96 496.34 60.39 486.51 110.95 520.59 110.95 542.46 0 510.6 0"/></g><path class="c" d="M625.43,123.1h-34.8c-2.84,0-4.28-3.43-2.28-5.46l2.48-2.52h34.59c.38,0,.73-.06,1.04-.18l1.8,3.47c1.11,2.13-.44,4.68-2.84,4.68Z"/><path class="d" d="M630.67,114.95c-.34,.13-.72,.19-1.13,.19h-37.74c-3.08,0-4.64-3.72-2.47-5.91l2.69-2.73h37.51c.41,0,.79-.06,1.13-.19l1.95,3.76c1.01,1.95-.03,4.23-1.95,4.88Z"/><path class="b" d="M634.27,106.31c-.38,.14-.8,.21-1.25,.21h-41.75c-3.41,0-5.13-4.12-2.73-6.55l27.37-27.71c1.84-1.86,4.95-1.39,6.15,.93l14.37,27.71c1.12,2.16-.03,4.69-2.16,5.41Z"/></svg>